<?xml version="1.0"?>
<svg xmlns="http://www.w3.org/2000/svg" width="26" height="26" viewBox="0 0 26 26">
    <path d="M 11 0.1875 C 5.027 0.1875 0.1875 2.341 0.1875 5 C 0.1875 7.659 5.027 9.8125 11 9.8125 C 13.218 9.8125 15.283 9.51 17 9 L 17.8125 8.40625 C 18.2725 8.06125 18.827 7.92425 19.375 8.03125 C 20.892 7.20325 21.8125 6.153 21.8125 5 C 21.8125 2.341 16.973 0.1875 11 0.1875 z M 0.1875 6.3125 L 0.1875 10 C 0.1885 12.659 5.027 14.8125 11 14.8125 C 11.114 14.8125 11.23175 14.8145 11.34375 14.8125 C 11.80275 14.3065 12.4915 14.0565 13.1875 14.1875 L 13.4375 14.21875 C 13.1685 13.87175 13 13.449 13 13 C 13 12.37 13.3085 11.78325 13.8125 11.40625 L 14.5 10.875 C 13.399 11.043 12.23 11.125 11 11.125 C 5.027 11.125 0.1875 8.9725 0.1875 6.3125 z M 21.8125 6.3125 C 21.8125 7.1595 21.32975 7.96525 20.46875 8.65625 C 20.80375 9.02025 21 9.488 21 10 L 21 10.40625 C 21.242 10.46225 21.48375 10.55 21.71875 10.625 C 21.78175 10.416 21.8125 10.217 21.8125 10 C 21.8135 9.023 21.8125 7.9975 21.8125 6.3125 z M 19 10 L 15 13 L 19 16 L 19 13.9375 C 21.431654 13.937425 23.588516 15.709609 24 18.1875 C 24.457 20.9465 22.5715 23.543 19.8125 24 C 17.0535 24.457 14.458 22.60275 14 19.84375 C 13.801 18.64275 14.062 17.48 14.625 16.5 L 12.8125 16.15625 C 12.2565 17.35525 12.04825 18.724 12.28125 20.125 C 12.89625 23.836 16.413 26.33475 20.125 25.71875 C 23.837 25.10275 26.33375 21.586 25.71875 17.875 C 25.165982 14.539518 22.273962 12.184742 19 12.1875 L 19 10 z M 0.1875 11.3125 L 0.1875 15 C 0.1875 17.546 4.629 19.60825 10.25 19.78125 C 10.136 18.53325 10.2775 17.305 10.6875 16.125 C 4.8575 16.052 0.1875 13.9265 0.1875 11.3125 z M 0.1875 16.3125 L 0.1875 20 C 0.1875 22.659 5.027 24.8125 11 24.8125 C 11.453 24.8125 11.90575 24.80425 12.34375 24.78125 C 11.45575 23.75325 10.7785 22.51 10.4375 21.125 C 4.7225 20.997 0.1875 18.8885 0.1875 16.3125 z"/>
</svg>
