<?xml version="1.0" ?><!DOCTYPE svg  PUBLIC '-//W3C//DTD SVG 1.1//EN'  'http://www.w3.org/Graphics/SVG/1.1/DTD/svg11.dtd'><svg height="100%" style="fill-rule:evenodd;clip-rule:evenodd;stroke-linecap:round;stroke-miterlimit:10;" version="1.1" viewBox="0 0 411 402" width="100%" xml:space="preserve" xmlns="http://www.w3.org/2000/svg" xmlns:serif="http://www.serif.com/" xmlns:xlink="http://www.w3.org/1999/xlink"><rect height="400.738" id="_9.-Daily-Backups" style="fill:none;" width="409.887" x="0.561" y="0.919"/><g id="Group-1"><ellipse cx="194.723" cy="314.768" id="Ellipse-1-copy-12" rx="148" ry="34.5" style="fill:#2f94fb;fill-opacity:0.329412;"/><path d="M352.723,295.268l-0.159,0l0.159,1.5c0,20.71 -42.517,42.5 -157.5,42.5c-106.964,0 -157.5,-21.79 -157.5,-42.5l0.16,-1.5l-0.16,0l0,-60l315,0l0,60Z" id="Ellipse-1-copy-8" style="fill:url(#_Linear1);"/><path d="M195.223,197.268c86.985,0 157.5,16.789 157.5,37.5c0,20.71 -41.306,42.5 -157.5,42.5c-117.818,0 -157.5,-21.79 -157.5,-42.5c0,-20.711 70.516,-37.5 157.5,-37.5Z" id="Ellipse-1-copy-9" style="fill:#f0f7ff;"/><ellipse cx="194.723" cy="235.268" id="Ellipse-1-copy-6" rx="148" ry="35" style="fill:#91d4ff;"/><ellipse cx="194.723" cy="225.268" id="Ellipse-1-copy-11" rx="148" ry="35" style="fill:#2f94fb;fill-opacity:0.988235;"/><path d="M352.723,207.268l-0.159,0l0.159,1.5c0,20.71 -42.517,42.5 -157.5,42.5c-106.964,0 -157.5,-21.79 -157.5,-42.5l0.16,-1.5l-0.16,0l0,-60l315,0l0,60Z" id="Ellipse-1-copy-5" style="fill:url(#_Linear2);"/><path d="M195.223,110.268c86.985,0 157.5,16.789 157.5,37.5c0,20.71 -41.306,42.5 -157.5,42.5c-117.818,0 -157.5,-21.79 -157.5,-42.5c0,-20.711 70.516,-37.5 157.5,-37.5Z" id="Ellipse-1-copy-4" style="fill:#f0f7ff;"/><ellipse cx="194.723" cy="147.268" id="Ellipse-1-copy-3" rx="148" ry="35" style="fill:url(#_Radial3);"/><ellipse cx="194.723" cy="134.268" id="Ellipse-1-copy-7" rx="148" ry="35" style="fill:#2f94fb;fill-opacity:0.811765;"/><path d="M352.723,116.268l-0.159,0l0.159,1.5c0,20.71 -42.517,42.5 -157.5,42.5c-106.964,0 -157.5,-21.79 -157.5,-42.5l0.16,-1.5l-0.16,0l0,-60l315,0l0,60Z" id="Ellipse-1-copy-2" style="fill:url(#_Linear4);"/><path d="M195.223,19.268c86.985,0 157.5,16.789 157.5,37.5c0,20.71 -41.306,42.5 -157.5,42.5c-117.818,0 -157.5,-21.79 -157.5,-42.5c0,-20.711 70.516,-37.5 157.5,-37.5Z" id="Ellipse-1-copy-10" style="fill:#f0f7ff;"/><ellipse cx="194.723" cy="56.268" id="Ellipse-1" rx="142" ry="31" style="fill:url(#_Linear5);"/><circle cx="302.723" cy="296.268" id="Ellipse-3" r="67" style="fill:url(#_Radial6);"/><path d="M302.723,211.268c46.913,0 85,38.087 85,85c0,46.913 -38.087,85 -85,85c-46.912,0 -85,-38.087 -85,-85c0,-46.913 38.088,-85 85,-85Zm0,19c36.427,0 66,29.573 66,66c0,36.426 -29.573,66 -66,66c-36.426,0 -66,-29.574 -66,-66c0,-36.427 29.574,-66 66,-66Z" id="Ellipse-2" style="fill:url(#_Linear7);"/><path d="M303.48,218.6c2.281,0.333 2.305,1.352 2.41,2.399c0.347,3.451 -6.072,2.854 -11.072,3.428c-23.395,2.69 -44.922,17.41 -56.068,38.456c0,0 -0.679,1.137 -1.835,1.372c-2.205,0.447 -4.026,-1.808 -2.439,-4.746c13.381,-24.494 40.044,-40.737 68.396,-40.92c0,0 0.301,-0.003 0.608,0.011Z" style="fill:#fff;fill-rule:nonzero;"/><path d="M228.132,289.178c0.524,0.067 0.607,0.118 0.828,0.215c2.291,1.008 1.399,4.963 1.452,8.486c0.108,7.315 1.328,14.592 3.587,21.555c0,0 0.231,2.674 -1.64,3.348c-3.252,1.172 -4.609,-4.7 -5.778,-10.513c-1.341,-6.667 -1.797,-13.549 -1.394,-20.278c0.04,-0.661 0.562,-2.818 2.773,-2.823c0.057,0.003 0.115,0.007 0.172,0.01Z" style="fill:#fff;fill-rule:nonzero;"/><path d="M352.082,321.532c-10.151,19.069 -30.376,32.07 -53.67,32.07" id="Ellipse-4-copy-4" style="fill:none;stroke:#cce6ff;stroke-width:5.36px;"/><path d="M356.042,274.946c1.943,5.875 2.993,12.149 2.993,18.666c0,1.314 -0.043,2.618 -0.127,3.911" id="Ellipse-4-copy-3" style="fill:none;stroke:#cce6ff;stroke-width:5.36px;"/><path d="M307.723,248.268c0,-3.864 -3.136,-7 -7,-7c-3.863,0 -7,3.136 -7,7l0,52c0,3.863 3.137,7 7,7c3.864,0 7,-3.137 7,-7l0,-52Z" id="Rounded-Rectangle-1" style="fill:#17bc00;"/><path d="M340.723,300.268c0,-3.864 -3.136,-7 -7,-7l-33,0c-3.863,0 -7,3.136 -7,7c0,3.863 3.137,7 7,7l33,0c3.864,0 7,-3.137 7,-7Z" id="Rounded-Rectangle-1-copy" style="fill:#0bbc00;"/></g><defs><linearGradient gradientTransform="matrix(312.846,0,0,312.846,39.5211,278.316)" gradientUnits="userSpaceOnUse" id="_Linear1" x1="0" x2="1" y1="0" y2="0"><stop offset="0" style="stop-color:#98d7ff;stop-opacity:1"/><stop offset="0.11" style="stop-color:#d2e9ff;stop-opacity:1"/><stop offset="0.37" style="stop-color:#e8f4ff;stop-opacity:1"/><stop offset="0.44" style="stop-color:#d4e9ff;stop-opacity:1"/><stop offset="0.68" style="stop-color:#cce6ff;stop-opacity:1"/><stop offset="0.84" style="stop-color:#a5d5ff;stop-opacity:1"/><stop offset="1" style="stop-color:#4cb9ff;stop-opacity:1"/></linearGradient><linearGradient gradientTransform="matrix(312.846,0,0,312.846,39.5211,190.316)" gradientUnits="userSpaceOnUse" id="_Linear2" x1="0" x2="1" y1="0" y2="0"><stop offset="0" style="stop-color:#98d7ff;stop-opacity:1"/><stop offset="0.11" style="stop-color:#d2e9ff;stop-opacity:1"/><stop offset="0.37" style="stop-color:#e8f4ff;stop-opacity:1"/><stop offset="0.44" style="stop-color:#d4e9ff;stop-opacity:1"/><stop offset="0.68" style="stop-color:#cce6ff;stop-opacity:1"/><stop offset="0.84" style="stop-color:#a5d5ff;stop-opacity:1"/><stop offset="1" style="stop-color:#4cb9ff;stop-opacity:1"/></linearGradient><radialGradient cx="0" cy="0" gradientTransform="matrix(287.112,0,0,287.112,180.814,217.87)" gradientUnits="userSpaceOnUse" id="_Radial3" r="1"><stop offset="0" style="stop-color:#97d7ff;stop-opacity:0.988235"/><stop offset="0.47" style="stop-color:#6ec6ff;stop-opacity:0.988235"/><stop offset="1" style="stop-color:#0097ff;stop-opacity:0.988235"/></radialGradient><linearGradient gradientTransform="matrix(312.846,0,0,312.846,39.5211,99.3156)" gradientUnits="userSpaceOnUse" id="_Linear4" x1="0" x2="1" y1="0" y2="0"><stop offset="0" style="stop-color:#98d7ff;stop-opacity:1"/><stop offset="0.11" style="stop-color:#d2e9ff;stop-opacity:1"/><stop offset="0.37" style="stop-color:#e8f4ff;stop-opacity:1"/><stop offset="0.44" style="stop-color:#d4e9ff;stop-opacity:1"/><stop offset="0.68" style="stop-color:#cce6ff;stop-opacity:1"/><stop offset="0.84" style="stop-color:#a5d5ff;stop-opacity:1"/><stop offset="1" style="stop-color:#4cb9ff;stop-opacity:1"/></linearGradient><linearGradient gradientTransform="matrix(3.56317e-15,58.191,-58.191,3.56317e-15,209.886,28.2766)" gradientUnits="userSpaceOnUse" id="_Linear5" x1="0" x2="1" y1="0" y2="0"><stop offset="0" style="stop-color:#cae5ff;stop-opacity:1"/><stop offset="1" style="stop-color:#adf;stop-opacity:1"/></linearGradient><radialGradient cx="0" cy="0" gradientTransform="matrix(79.3329,0,0,79.3329,303.066,294.26)" gradientUnits="userSpaceOnUse" id="_Radial6" r="1"><stop offset="0" style="stop-color:#fff;stop-opacity:1"/><stop offset="0.55" style="stop-color:#f5f9fe;stop-opacity:1"/><stop offset="1" style="stop-color:#d0e4fc;stop-opacity:1"/></radialGradient><linearGradient gradientTransform="matrix(6.95988e-15,113.664,-113.664,6.95988e-15,373.029,310.841)" gradientUnits="userSpaceOnUse" id="_Linear7" x1="0" x2="1" y1="0" y2="0"><stop offset="0" style="stop-color:#2684fb;stop-opacity:1"/><stop offset="1" style="stop-color:#0563c5;stop-opacity:1"/></linearGradient></defs></svg>